<svg width="132" height="132" viewBox="0 0 132 132" fill="none" xmlns="http://www.w3.org/2000/svg">
<path d="M55.2845 1.1046L1.29157 55.1273C0.84266 55.5765 0.59433 56.1834 0.59433 56.8189C0.59433 57.4545 0.847436 58.0614 1.29157 58.5106L55.2797 112.533C56.2109 113.465 57.7248 113.465 58.656 112.533L94.6497 76.5166C95.0986 76.0674 95.3469 75.4605 95.3469 74.8249C95.3469 74.1894 95.0938 73.5825 94.6497 73.1333L76.6553 55.1273C75.724 54.1955 74.2102 54.1955 73.2789 55.1273L56.9703 71.4464L42.3521 56.8189L74.9695 24.1807L125.581 74.8249L73.9762 126.458H39.9596L27.438 113.929L24.0616 117.307L37.2805 130.535C37.7294 130.984 38.3359 131.232 38.971 131.232H74.9647C75.5999 131.232 76.2064 130.979 76.6553 130.535L130.643 76.5118C131.575 75.5799 131.575 74.0651 130.643 73.1333L76.6553 19.1106C76.2064 18.6614 75.5999 18.4129 74.9647 18.4129C74.3295 18.4129 73.723 18.6662 73.2741 19.1106L37.2805 55.1273C36.8316 55.5765 36.5832 56.1834 36.5832 56.8189C36.5832 57.4545 36.8363 58.0614 37.2805 58.5106L55.2749 76.5166C56.2062 77.4484 57.72 77.4484 58.6513 76.5166L74.9599 60.1975L89.578 74.8249L56.9607 107.463L6.35848 56.8189L57.9588 5.18556H91.9754L104.497 17.7152L107.873 14.3367L94.6545 1.10937C94.2056 0.660175 93.5991 0.411689 92.9639 0.411689H56.9703C56.3399 0.40691 55.7286 0.655406 55.2845 1.1046Z" fill="#F4F5F0"/>
</svg>
