<svg width="105" height="69" viewBox="0 0 105 69" fill="none" xmlns="http://www.w3.org/2000/svg">
<g clip-path="url(#clip0_17_1111)">
<path d="M99.6758 0.285215C99.5975 0.776051 99.5595 1.23372 99.5573 1.65823C99.5461 12.649 99.5439 23.6596 99.5506 34.6924L73.4325 34.6835L73.4683 15.4702L73.4795 0.123814C73.4795 0.0420085 73.5219 0 73.6047 0H99.3806C99.441 0 99.4902 0.0243207 99.526 0.075173L99.6758 0.285215Z" fill="white"/>
<path d="M99.6757 0.285156L103.605 4.14551C103.728 4.26712 103.797 4.43294 103.797 4.60539L103.788 34.5596C103.788 34.6569 103.739 34.7056 103.638 34.7056L99.5505 34.6923C99.5438 23.6595 99.5461 12.6489 99.5572 1.65817C99.5595 1.23366 99.5975 0.775992 99.6757 0.285156Z" fill="#69676C"/>
<path d="M64.9955 6.54458C64.9262 7.26977 64.8926 7.83357 64.8904 8.23597C64.8725 14.5925 64.877 23.4032 64.9016 34.6681L38.703 34.6792L38.6896 21.336L38.674 6.35222C38.674 6.29252 38.7209 6.24609 38.7813 6.24609H64.8345C64.9083 6.24609 64.9754 6.29474 64.9955 6.36549C65.0112 6.42518 65.0112 6.48488 64.9955 6.54458Z" fill="white"/>
<path d="M64.9955 6.54492C65.4874 6.96943 65.9749 7.37404 66.4132 7.84497C68.7813 10.392 71.1337 12.9346 73.4682 15.4706L73.4324 34.684L64.9016 34.6685C64.877 23.4036 64.8725 14.5929 64.8904 8.23632C64.8926 7.83392 64.9262 7.27012 64.9955 6.54492Z" fill="#69676C"/>
<path d="M29.9508 13.0357C29.6803 15.5231 29.8413 18.1475 29.8055 20.6569C29.7406 25.3066 29.7585 29.9806 29.8636 34.6767L3.82829 34.6413C3.7612 34.6413 3.72766 34.6082 3.72766 34.5396V12.7173C3.72766 12.6422 3.76568 12.6046 3.83947 12.6046C12.4531 12.598 21.0622 12.598 29.6646 12.6046C29.9016 12.6046 29.9978 12.7483 29.9508 13.0357Z" fill="white"/>
<path d="M29.9508 13.0361C30.1587 13.0538 30.2974 13.1003 30.3712 13.1776C33.0277 15.948 35.682 18.7228 38.3318 21.5019C38.3788 21.5506 38.4324 21.5639 38.4973 21.5417C38.6203 21.4997 38.6851 21.4312 38.6896 21.3361L38.703 34.6793L29.8636 34.6771C29.7585 29.981 29.7406 25.307 29.8054 20.6574C29.8412 18.1479 29.6802 15.5235 29.9508 13.0361Z" fill="#69676C"/>
<path d="M34.0295 58.2058L32.2875 58.2368C32.1958 58.239 32.169 58.197 32.207 58.1152C34.9731 52.1544 37.6811 46.1737 40.3309 40.1731C40.4517 39.9012 40.55 39.7309 40.6283 39.6646C40.8542 39.4723 41.0241 39.5121 41.1404 39.7818L49.0787 58.1837C49.0943 58.2191 49.0653 58.2589 49.025 58.2545C48.1932 58.1572 47.3658 58.1727 46.5407 58.3031C46.4713 58.3142 46.4244 58.2876 46.3998 58.2235L43.618 51.3032C43.5845 51.2236 43.5263 51.1838 43.4391 51.1838H36.9678C36.8246 51.1838 36.6972 51.2722 36.648 51.4049L34.1435 58.1262C34.1256 58.1727 34.0809 58.2036 34.0295 58.2058ZM37.3703 49.8152C37.3412 49.8881 37.3926 49.9677 37.4709 49.9677H42.9897C43.0679 49.9677 43.1194 49.8881 43.0903 49.8152L40.3309 43.4874C40.2929 43.4012 40.1677 43.4012 40.1297 43.4874L37.3703 49.8152Z" fill="white"/>
<path d="M79.6042 57.9408C71.7531 60.448 64.4096 55.6635 66.0219 47.0142C67.3949 39.6494 75.5948 38.1902 81.5317 40.7637C81.601 40.7925 81.6256 40.8433 81.6055 40.9141L81.0934 42.8421C81.0577 42.9769 80.9906 42.9946 80.8944 42.8951C79.3202 41.2966 77.3971 40.4387 75.0917 40.6554C70.7916 41.0622 68.7992 44.2173 68.5442 48.1617C68.2424 52.8202 69.9933 57.2598 75.3197 57.6401C77.5402 57.7993 79.5662 56.8729 81.2455 55.4977C81.3238 55.4335 81.4423 55.4999 81.4244 55.5994L81.1583 57.1581C81.1471 57.2266 81.1069 57.2863 81.0465 57.3217C80.6641 57.5494 80.1833 57.7573 79.6042 57.9408Z" fill="white"/>
<path d="M97.5357 58.3782C90.3063 59.7667 84.1681 55.8665 84.8367 48.0242C85.2034 43.7349 87.9405 40.6661 92.3188 39.8237C97.2137 38.8819 102.896 40.5909 104.521 45.769C105.19 47.9048 105.156 50.5934 104.419 52.7115C103.338 55.8157 101.044 57.7039 97.5357 58.3782ZM87.5357 50.4054C87.8868 55.4553 91.5496 58.5153 96.6413 57.4982C100.161 56.7951 101.91 53.9585 102.236 50.5735C102.757 45.2008 100.454 40.1067 94.1055 40.6595C88.6091 41.137 87.2115 45.7337 87.5357 50.4054Z" fill="white"/>
<path d="M23.618 49.3866C25.8206 52.4046 28.1506 55.3231 30.6059 58.1443C30.6305 58.173 30.6104 58.2195 30.5701 58.2195H27.6296C27.529 58.2195 27.4351 58.173 27.3769 58.0934C25.8519 56.0173 24.3962 53.8793 22.8018 51.9315C21.9454 50.8857 20.7893 49.1921 19.8054 49.5105C19.7249 49.537 19.6846 49.5923 19.6824 49.6763C19.6422 52.5041 19.7137 55.3319 19.8948 58.1576C19.8993 58.2305 19.8345 58.2902 19.7607 58.2814C18.9937 58.1819 18.2289 58.1863 17.4619 58.2902C17.3054 58.3101 17.2316 58.2438 17.2383 58.0868C17.5089 52.0752 17.5066 46.0613 17.2271 40.0475C17.2227 39.9568 17.2651 39.9148 17.3546 39.9193C18.4928 39.9723 19.6287 40.1006 20.7312 40.0453C23.9221 39.8817 29.2396 39.6031 28.8483 44.5137C28.6337 47.1867 26.1292 48.6902 23.6784 49.2297C23.5778 49.2518 23.5576 49.3048 23.618 49.3866ZM19.7897 48.3696C21.5652 48.5929 23.6761 48.5 25.0603 47.3857C26.5876 46.1586 26.9342 43.8327 25.7468 42.285C24.4812 40.6312 21.8537 40.8434 19.9709 41.0867C19.8881 41.0977 19.8255 41.1662 19.8233 41.2503L19.6265 48.1817C19.6243 48.2944 19.6779 48.3563 19.7897 48.3696Z" fill="white"/>
<path d="M7.46196 48.5001C8.7142 48.5907 9.79425 48.9157 10.6999 49.4795C12.4016 50.5364 12.5671 53.1895 11.9611 54.7991C10.2594 59.3161 3.91992 58.0758 0.29738 58.2637C0.23924 58.2659 0.210171 58.2394 0.212407 58.1819C0.460618 52.146 0.453909 46.11 0.196754 40.0718C0.194518 39.9945 0.230296 39.9547 0.308561 39.9569C1.64801 39.9856 2.87788 40.1072 4.26429 39.9989C6.8828 39.7888 11.0823 39.7689 11.5832 43.2158C12.017 46.1896 9.98209 47.5184 7.44854 48.3873C7.38817 48.4072 7.39935 48.4956 7.46196 48.5001ZM9.21285 44.3501C9.36491 40.8368 5.32421 40.6334 2.88906 41.1243C2.81527 41.1397 2.77949 41.184 2.77725 41.2569L2.63414 47.9562C2.63191 48.0424 2.67439 48.0888 2.7616 48.091C5.55677 48.2126 9.0608 47.8522 9.21285 44.3501ZM2.69899 49.1987L2.71241 57.2246C2.71241 57.2533 2.737 57.2776 2.76607 57.2776L5.6082 57.271C7.90695 57.2688 9.76742 55.5553 9.76294 53.4482V52.9485C9.75847 50.8415 7.89353 49.1368 5.59479 49.139L2.75266 49.1457C2.72359 49.1457 2.69899 49.17 2.69899 49.1987Z" fill="white"/>
<path d="M56.2656 48.9666C56.3036 49.0351 56.4042 49.0373 56.4467 48.971C58.2669 46.0923 59.9172 43.1208 61.3975 40.0586C61.4199 40.0121 61.4691 39.9834 61.5205 39.9834L63.4414 40.0121C63.4973 40.0121 63.5308 40.0763 63.4995 40.1227C61.279 43.3618 59.1994 46.6893 57.2607 50.1052C57.0527 50.4722 57.0438 50.8393 57.0482 51.2395C57.0773 53.5322 57.1422 55.8272 57.2405 58.12C57.2428 58.193 57.207 58.2305 57.1332 58.2305L54.7338 58.2372C54.669 58.2372 54.6377 58.2062 54.6422 58.1421C54.7338 56.5834 54.792 54.2994 54.8166 51.2947C54.8188 50.9277 54.7651 50.6536 54.6556 50.47C52.5581 47.0099 50.4561 43.5519 48.3497 40.0962C48.3161 40.0409 48.3318 40.0144 48.3966 40.0144L51.1918 39.9945C51.241 39.9945 51.2768 40.0144 51.3014 40.0564L56.2656 48.9666Z" fill="white"/>
<path d="M5.8139 68.4955C2.29869 70.1913 -1.14943 67.3723 0.366672 63.649C1.22982 61.5287 4.06524 61.2125 5.95701 61.9952C6.0241 62.024 6.05987 62.0726 6.06211 62.1456L6.08224 62.6718C6.08671 62.7823 5.96148 62.8509 5.86757 62.7912C-0.366781 58.807 -0.773758 71.6417 5.90111 67.9029C5.96148 67.8676 6.03975 67.9007 6.05987 67.9671C6.12919 68.2058 6.04869 68.3827 5.8139 68.4955Z" fill="white"/>
<path d="M17.9405 65.668C17.9182 67.5141 16.3842 68.9955 14.517 68.9712L13.6181 68.9601C11.7487 68.938 10.2527 67.4235 10.2773 65.5751L10.2862 64.9207C10.3086 63.0745 11.8426 61.5932 13.7097 61.6175L14.6087 61.6285C16.4781 61.6506 17.9741 63.1652 17.9495 65.0135L17.9405 65.668ZM16.8828 64.6111C16.894 63.2204 15.7648 62.0818 14.3582 62.0707L13.911 62.0663C12.5045 62.0553 11.3529 63.1718 11.3417 64.5625L11.3283 66.0129C11.3171 67.4036 12.4463 68.5422 13.8529 68.5533L14.3001 68.5577C15.7066 68.5688 16.8582 67.4522 16.8694 66.0615L16.8828 64.6111Z" fill="white"/>
<path d="M48.3631 65.6107C48.3676 67.459 46.8559 68.9581 44.9865 68.9625L44.0921 68.9647C42.2226 68.9691 40.7065 67.4745 40.7021 65.6262L40.6998 64.9761C40.6954 63.1278 42.207 61.6287 44.0764 61.6243L44.9709 61.6221C46.8403 61.6177 48.3564 63.1123 48.3608 64.9606L48.3631 65.6107ZM47.2942 64.6047C47.3054 63.214 46.1761 62.0775 44.7718 62.0665L44.3201 62.0621C42.9136 62.051 41.7642 63.1676 41.7531 64.556L41.7396 66.0153C41.7285 67.406 42.8577 68.5424 44.262 68.5535L44.7137 68.5579C46.1202 68.569 47.2696 67.4524 47.2808 66.0639L47.2942 64.6047Z" fill="white"/>
<path d="M62.0975 68.8983C62.0103 68.8806 61.9634 68.7877 61.9991 68.7081C62.9115 66.6453 63.8261 64.5581 64.7451 62.4489C64.877 62.146 65.0313 61.8718 65.208 61.6286C65.246 61.5755 65.331 61.5844 65.3556 61.6463L68.3296 68.686C68.3676 68.7722 68.3028 68.8673 68.2066 68.8673L67.5313 68.8739C67.4441 68.8739 67.3681 68.8231 67.3368 68.7435L66.3372 66.2628C66.2992 66.1699 66.2075 66.108 66.1069 66.108L63.9535 66.1102C63.7903 66.1102 63.6449 66.2119 63.589 66.3623C63.3699 66.957 63.1396 67.5739 62.8958 68.2129C62.708 68.7059 62.6744 69.0177 62.0975 68.8983ZM63.9938 65.5221C63.9692 65.584 64.0139 65.6503 64.081 65.6503L65.9973 65.626C66.0644 65.626 66.1091 65.5575 66.0823 65.4978L65.0962 63.2382C65.0649 63.163 64.9553 63.163 64.924 63.2404L63.9938 65.5221Z" fill="white"/>
<path d="M104.213 65.6106C104.217 67.4546 102.706 68.9536 100.841 68.958L99.8972 68.9602C98.03 68.9647 96.5161 67.4723 96.5116 65.6261L96.5094 64.9805C96.5049 63.1365 98.0166 61.6375 99.8815 61.6331L100.825 61.6309C102.692 61.6264 104.206 63.1188 104.211 64.965L104.213 65.6106ZM103.137 64.5869C103.137 63.194 101.997 62.0664 100.588 62.0664H100.141C98.7321 62.0664 97.5917 63.194 97.5917 64.5869V66.0373C97.5917 67.4302 98.7321 68.5578 100.141 68.5578H100.588C101.997 68.5578 103.137 67.4302 103.137 66.0373V64.5869Z" fill="white"/>
<path d="M25.0492 65.5902L27.5738 68.7276C27.6252 68.7917 27.6096 68.8315 27.5313 68.8492C26.9275 68.9841 26.4848 68.889 26.1069 68.3539C25.4472 67.4187 24.7495 66.4901 24.0161 65.5681C23.8774 65.3934 23.5934 65.4907 23.5957 65.714L23.6426 68.7254C23.6449 68.8227 23.5957 68.8713 23.4973 68.8713H22.7392C22.6409 68.8713 22.5939 68.8227 22.6006 68.7254C22.7124 66.4547 22.7146 64.184 22.6051 61.9134C22.6028 61.836 22.6386 61.7962 22.7169 61.794C24.347 61.7343 26.9968 61.3651 26.9991 63.3151C26.9991 64.6859 26.042 64.907 25.076 65.4509C25.0112 65.4885 25.0022 65.5349 25.0492 65.5902ZM23.5979 62.5148L23.5666 64.6284C23.5644 64.8252 23.7231 64.9844 23.9199 64.9888L24.5572 64.9955C25.3645 65.0087 26.0264 64.4317 26.0353 63.7109L26.0398 63.5031C26.0487 62.7801 25.4047 62.1875 24.5975 62.1765L23.9602 62.1676C23.7634 62.1632 23.6002 62.3202 23.5979 62.5148Z" fill="white"/>
<path d="M33.0612 65.8403L33.1395 68.7433C33.1417 68.8118 33.1059 68.8494 33.0366 68.8561L32.1914 68.9158C32.1086 68.9224 32.0393 68.8538 32.0438 68.7698C32.1824 66.4859 32.1914 64.1998 32.0684 61.9158C32.0661 61.8517 32.0952 61.8185 32.1601 61.8163C33.6695 61.7544 37.1399 61.1707 36.6323 63.9123C36.3483 65.4534 34.5326 65.7872 33.1842 65.7209C33.0992 65.7187 33.059 65.7585 33.0612 65.8403ZM33.0433 62.4641L33.1104 64.9603C33.1149 65.1173 33.2468 65.2433 33.4056 65.2389L34.1949 65.219C35.0514 65.1969 35.7289 64.5425 35.7088 63.762L35.7021 63.5276C35.682 62.7449 34.9709 62.1281 34.1144 62.1502L33.3251 62.1701C33.1663 62.1745 33.0411 62.3049 33.0433 62.4641Z" fill="white"/>
<path d="M54.2016 65.5182C54.0719 65.4784 54.0093 65.5248 54.0116 65.6575L54.0764 68.7219C54.0786 68.8214 54.0272 68.8722 53.9266 68.8722H53.1551C53.0634 68.8722 53.021 68.8258 53.0277 68.7351C53.1864 66.4755 53.1931 64.2159 53.0478 61.9563C53.0433 61.8877 53.0769 61.8502 53.1462 61.8435C54.3984 61.733 56.4087 61.5605 57.1153 62.2282C57.6699 62.75 57.728 63.5681 57.3769 64.2071C57.046 64.8084 56.3058 65.1445 55.6574 65.4496C55.6015 65.4762 55.5836 65.5491 55.6238 65.5978L58.1238 68.6953C58.1752 68.7594 58.1618 68.8037 58.0836 68.828C57.5245 69.0071 57.0706 68.8589 56.7195 68.388C56.2388 67.738 54.9083 65.7415 54.2016 65.5182ZM54.0183 62.509L54.0049 64.6625C54.0049 64.846 54.1547 64.9964 54.3425 64.9986L55.0939 65.0008C55.9302 65.0052 56.61 64.4326 56.6144 63.7184V63.4796C56.6189 62.7677 55.9436 62.184 55.1073 62.1818L54.3559 62.1774C54.1703 62.1752 54.0183 62.3255 54.0183 62.509Z" fill="white"/>
<path d="M73.4995 62.3494H71.496C71.4266 62.3494 71.3707 62.2941 71.3707 62.2256V61.9249C71.3707 61.8564 71.4266 61.8011 71.496 61.8011L76.5563 61.79C76.6256 61.79 76.6816 61.8453 76.6816 61.9139V62.2566C76.6816 62.3251 76.6234 62.3826 76.5519 62.3804L74.631 62.3008C74.5595 62.2986 74.5013 62.356 74.5013 62.4246V68.748C74.5013 68.8165 74.4454 68.8718 74.3761 68.8718H73.6918C73.6225 68.8718 73.5666 68.8165 73.5666 68.748L73.6247 62.4732C73.6247 62.4047 73.5688 62.3494 73.4995 62.3494Z" fill="white"/>
<path d="M89.9731 67.6141L92.1578 61.8611C92.1936 61.7705 92.2584 61.7329 92.3546 61.7506L92.8622 61.8456C92.9449 61.8611 92.9874 61.954 92.9427 62.0247C91.7396 63.9947 90.8944 66.5373 90.0424 68.693C89.9507 68.923 89.669 69.0114 89.4588 68.8743C89.4163 68.8456 89.3559 68.7837 89.2799 68.6886C89.2284 68.6267 89.1882 68.5537 89.1547 68.4675C88.2893 66.2853 87.406 64.1097 86.5004 61.9407C86.4691 61.8633 86.4959 61.8191 86.5786 61.8103L87.3546 61.7285C87.4284 61.7218 87.4798 61.7506 87.5066 61.8191L89.7271 67.6141C89.7696 67.7268 89.9306 67.7268 89.9731 67.6141Z" fill="white"/>
<path d="M81.97 68.8079C81.97 68.841 81.9431 68.8676 81.9096 68.8676H81.1314C81.0979 68.8676 81.071 68.841 81.071 68.8079V61.8566C81.071 61.8234 81.0979 61.7969 81.1314 61.7969H81.9096C81.9431 61.7969 81.97 61.8234 81.97 61.8566V68.8079Z" fill="white"/>
</g>
<defs>
<clipPath id="clip0_17_1111">
<rect width="105" height="69" fill="white"/>
</clipPath>
</defs>
</svg>
