<svg width="41" height="40" viewBox="0 0 41 40" fill="none" xmlns="http://www.w3.org/2000/svg">
<path d="M38.1667 0.5H2.83333C2.24765 0.5 1.68595 0.728273 1.27181 1.1346C0.857663 1.54093 0.625 2.09203 0.625 2.66667V37.3333C0.625 37.908 0.857663 38.4591 1.27181 38.8654C1.68595 39.2717 2.24765 39.5 2.83333 39.5H21.8581V24.42H16.695V18.5158H21.8581V14.1825C21.8581 9.145 24.994 6.39983 29.5873 6.39983C31.1309 6.3955 32.6767 6.4735 34.2137 6.63167V11.875H31.0448C28.5538 11.875 28.068 13.0407 28.068 14.7458V18.505H34.0238L33.2509 24.4092H28.0657V39.5H38.1667C38.7523 39.5 39.3141 39.2717 39.7282 38.8654C40.1423 38.4591 40.375 37.908 40.375 37.3333V2.66667C40.375 2.09203 40.1423 1.54093 39.7282 1.1346C39.3141 0.728273 38.7523 0.5 38.1667 0.5Z" fill="white"/>
</svg>
