<svg width="41" height="40" viewBox="0 0 41 40" fill="none" xmlns="http://www.w3.org/2000/svg">
<path d="M40.258 11.9943C40.2357 10.3533 39.9226 8.72867 39.3327 7.19299C38.8211 5.89765 38.0398 4.72125 37.0386 3.73895C36.0374 2.75665 34.8384 1.99006 33.5181 1.48815C31.973 0.919091 30.3407 0.611391 28.6907 0.578151C26.5663 0.484985 25.8928 0.458984 20.5 0.458984C15.1073 0.458984 14.416 0.458985 12.3071 0.578151C10.6578 0.611635 9.02627 0.919332 7.48188 1.48815C6.16142 1.98971 4.96222 2.75618 3.96098 3.73852C2.95975 4.72086 2.17854 5.89744 1.66734 7.19299C1.08617 8.70777 0.773233 10.3089 0.742044 11.9272C0.647086 14.0137 0.618378 14.6745 0.618378 19.9655C0.618378 25.2565 0.618378 25.9325 0.742044 28.0038C0.775169 29.6245 1.08654 31.2235 1.66734 32.7423C2.1794 34.0375 2.96119 35.2136 3.96276 36.1955C4.96432 37.1774 6.16364 37.9436 7.48409 38.445C9.02425 39.0369 10.6561 39.3666 12.3093 39.42C14.4359 39.5131 15.1095 39.5413 20.5022 39.5413C25.895 39.5413 26.5862 39.5413 28.6951 39.42C30.3451 39.3881 31.9775 39.0811 33.5225 38.5122C34.8424 38.0097 36.0412 37.2429 37.0423 36.2606C38.0434 35.2784 38.8249 34.1023 39.3371 32.8073C39.9179 31.2907 40.2293 29.6917 40.2624 28.0688C40.3573 25.9845 40.386 25.3237 40.386 20.0305C40.3816 14.7395 40.3816 14.0678 40.258 11.9943ZM20.4868 29.9712C14.8467 29.9712 10.2776 25.4883 10.2776 19.9547C10.2776 14.421 14.8467 9.93815 20.4868 9.93815C23.1944 9.93815 25.7911 10.9935 27.7057 12.8719C29.6203 14.7504 30.6959 17.2981 30.6959 19.9547C30.6959 22.6112 29.6203 25.1589 27.7057 27.0374C25.7911 28.9158 23.1944 29.9712 20.4868 29.9712ZM31.1022 11.9033C30.7895 11.9036 30.4798 11.8434 30.1909 11.7261C29.9019 11.6088 29.6394 11.4368 29.4182 11.2199C29.1971 11.0029 29.0218 10.7453 28.9022 10.4618C28.7827 10.1783 28.7213 9.87446 28.7216 9.56765C28.7216 9.26107 28.7832 8.95749 28.9028 8.67425C29.0223 8.391 29.1976 8.13364 29.4186 7.91685C29.6395 7.70007 29.9018 7.5281 30.1905 7.41078C30.4792 7.29345 30.7886 7.23307 31.1011 7.23307C31.4136 7.23307 31.723 7.29345 32.0117 7.41078C32.3004 7.5281 32.5627 7.70007 32.7837 7.91685C33.0046 8.13364 33.1799 8.391 33.2995 8.67425C33.419 8.95749 33.4806 9.26107 33.4806 9.56765C33.4806 10.859 32.4162 11.9033 31.1022 11.9033Z" fill="white"/>
</svg>
