<svg width="122" height="67" viewBox="0 0 122 67" fill="none" xmlns="http://www.w3.org/2000/svg">
<path d="M11.3978 47.7915C11.3978 48.7593 11.2966 49.4862 11.0943 49.9767C10.7159 50.8681 10.031 51.5333 9.03957 51.9739C8.04815 52.4144 7.00981 52.6332 5.92453 52.6332C5.31883 52.6332 4.68673 52.5642 4.03117 52.4262C3.51347 52.3131 3.03976 52.1472 2.61151 51.9269C2.1818 51.7081 1.84449 51.4907 1.5981 51.2763C1.35172 51.0634 1.12146 50.7961 0.90734 50.476C0.693219 50.1558 0.543627 49.9047 0.462965 49.7226C0.380836 49.5405 0.282574 49.3056 0.169647 49.0163L2.10114 48.658C2.47952 49.4744 2.93416 50.0516 3.46507 50.3908C4.05757 50.7682 4.82166 50.9562 5.75588 50.9562C6.85435 50.9562 7.73137 50.755 8.3884 50.3526C8.77998 50.0765 9.06303 49.7564 9.24049 49.3922C9.41648 49.0031 9.50594 48.4509 9.50594 47.7342V39.0127H11.3993V47.7915H11.3978Z" fill="#2C3E5C"/>
<path d="M35.048 52.3131H32.8511L31.2232 49.0354H23.0044L21.3765 52.3131H19.2368L26.1678 39.0156H28.1932L35.048 52.3131ZM30.4077 47.5096L27.1314 40.9174L23.7993 47.5096H30.4077Z" fill="#2C3E5C"/>
<path d="M56.4264 48.677C56.0862 49.2791 55.7694 49.7579 55.479 50.1089C54.0271 51.8035 51.7553 52.6523 48.6623 52.6523C46.6296 52.6523 44.9123 52.2074 43.5117 51.3145C43.2081 51.1133 42.906 50.8813 42.6024 50.6184C42.1976 50.2161 41.8705 49.8152 41.6183 49.4128C40.9114 48.3452 40.558 47.0646 40.558 45.5697C40.558 44.013 40.9495 42.6943 41.7327 41.6149C41.9468 41.2889 42.2695 40.9365 42.6977 40.5605C43.2154 40.1215 43.7331 39.7763 44.2508 39.5252C45.4505 38.9217 46.9083 38.6206 48.6256 38.6206C50.6334 38.6206 52.3112 39.0289 53.6619 39.8454C54.1913 40.1846 54.6533 40.5547 55.0434 40.957C55.435 41.3712 55.8002 41.8807 56.1419 42.4828L54.1151 42.916C53.989 42.7031 53.8687 42.5078 53.7558 42.3316C53.4273 41.8925 53.0298 41.5283 52.5634 41.239C51.553 40.5987 50.2653 40.2786 48.7004 40.2786C46.9831 40.2786 45.6015 40.6486 44.5529 41.3903C44.3256 41.5283 44.0734 41.7544 43.7962 42.0687C42.9749 42.9484 42.5657 44.11 42.5657 45.5535C42.5657 46.8722 42.9192 47.9898 43.6261 48.9061C44.4341 49.9605 45.6778 50.6272 47.3571 50.9033C47.7868 50.9665 48.2971 50.9973 48.8911 50.9973C51.0367 50.9973 52.6338 50.4261 53.6824 49.2835C53.9479 49.0075 54.1943 48.6682 54.4216 48.2673L56.4264 48.677Z" fill="#2C3E5C"/>
<path d="M78.0879 52.3131H75.891L74.2631 49.0354H66.0443L64.4164 52.3131H62.2767L69.2078 39.0156H71.2331L78.0879 52.3131ZM73.4491 47.5096L70.1728 40.9174L66.8407 47.5096H73.4491Z" fill="#2C3E5C"/>
<path d="M99.0689 52.3131H97.2137L86.7423 41.3124L86.7804 52.3131H84.9633V39.0156H86.9139L97.309 49.9972L97.2518 39.0156H99.0689V52.3131Z" fill="#2C3E5C"/>
<path d="M121.83 52.3131H119.633L118.006 49.0354H109.787L108.159 52.3131H106.019L112.949 39.0142H114.974L121.83 52.3131ZM117.19 47.5096L113.914 40.9174L110.582 47.5096H117.19Z" fill="#2C3E5C"/>
<path d="M37.0528 59.7791C38.7951 59.7791 40.1239 61.1345 40.1239 62.929C40.1239 64.7236 38.7951 66.079 37.0528 66.079C35.3017 66.079 33.973 64.7221 33.973 62.929C33.973 61.136 35.3017 59.7791 37.0528 59.7791ZM37.0528 65.4417C38.3992 65.4417 39.4287 64.3564 39.4287 62.9305C39.4287 61.5046 38.3992 60.4193 37.0528 60.4193C35.6977 60.4193 34.6682 61.5046 34.6682 62.9305C34.6682 64.3564 35.6977 65.4417 37.0528 65.4417Z" fill="#2C3E5C"/>
<path d="M47.5683 64.12C47.1459 65.2669 46.0724 66.0805 44.77 66.0805C43.0629 66.0805 41.7254 64.7236 41.7254 62.9305C41.7254 61.1374 43.0541 59.7805 44.77 59.7805C46.0724 59.7805 47.1459 60.5941 47.5683 61.7498L46.9347 61.9686C46.5915 61.0493 45.7644 60.4193 44.77 60.4193C43.4413 60.4193 42.4206 61.5046 42.4206 62.9305C42.4206 64.3564 43.4413 65.4417 44.77 65.4417C45.7644 65.4417 46.5915 64.8117 46.9347 63.8924L47.5683 64.12Z" fill="#2C3E5C"/>
<path d="M49.4602 59.8672H53.7104V60.506H50.129V62.606H53.0592V63.236H50.129V65.3536H53.7104V65.9924H49.4602V59.8672Z" fill="#2C3E5C"/>
<path d="M58.2935 59.8672L60.9685 65.9924H60.247L59.6662 64.6619H56.1728L55.6008 65.9924H54.8792L57.5455 59.8672H58.2935ZM56.447 64.0231H59.3949L57.9165 60.6103L56.447 64.0231Z" fill="#2C3E5C"/>
<path d="M62.5964 65.9924V59.8672H63.274L67.1458 64.9424V59.8672H67.8145V65.9924H67.137L63.2652 60.9172V65.9924H62.5964Z" fill="#2C3E5C"/>
<path d="M73.191 59.8672H73.8598V65.3536H77.2388V65.9924H73.191V59.8672Z" fill="#2C3E5C"/>
<path d="M79.6499 59.8672V65.9924H78.9811V59.8672H79.6499Z" fill="#2C3E5C"/>
<path d="M82.0786 59.8672H86.1703V60.506H82.7473V62.8953H85.8535V63.5341H82.7473V65.9924H82.0786V59.8672Z" fill="#2C3E5C"/>
<path d="M88.0519 59.8672H92.3021V60.506H88.7207V62.606H91.651V63.236H88.7207V65.3536H92.3021V65.9924H88.0519V59.8672Z" fill="#2C3E5C"/>
<path d="M75.5014 17.8484L66.5163 12.2603L77.518 1.23108L76.7309 0L58.0253 6.98107L48.0149 0.755874L38.1302 5.39952L38.0533 6.71376L57.7353 18.9533L46.7943 29.9929L47.6257 31.2047L73.9938 19.4211L73.9183 27.2575L69.1261 24.2771L68.3405 25.5497L74.2586 29.2296L75.3963 28.6014L75.5014 17.8484ZM73.1623 18.1543L65.0871 21.7629L60.1203 18.6741L65.4333 13.3473L73.1623 18.1543ZM59.3731 17.3094L58.7917 9.21602L64.1328 12.5365L59.3731 17.3094ZM74.0426 2.59878L65.2143 11.451L59.6291 7.97751L74.0426 2.59878ZM47.9157 2.45473L57.2264 8.24482L57.8759 17.2797L40.0107 6.16876L47.9157 2.45473ZM59.0388 19.7611L63.4403 22.498L50.6691 28.2049L59.0388 19.7611Z" fill="#AFAB80"/>
</svg>
