<svg width="68" height="68" viewBox="0 0 68 68" fill="none" xmlns="http://www.w3.org/2000/svg">
<path d="M34.0989 0.0855713C15.5377 0.0855713 0.437012 15.1863 0.437012 33.7475C0.437012 52.3087 15.5377 67.4094 34.0989 67.4094C52.6601 67.4094 67.7608 52.3087 67.7608 33.7475C67.7608 15.1863 52.6601 0.0855713 34.0989 0.0855713ZM34.0989 60.677C19.2507 60.677 7.16939 48.5958 7.16939 33.7475C7.16939 18.8992 19.2507 6.81795 34.0989 6.81795C48.9472 6.81795 61.0285 18.8992 61.0285 33.7475C61.0285 48.5958 48.9472 60.677 34.0989 60.677Z" fill="white"/>
<path d="M24.0004 50.5784L50.9299 33.7475L24.0004 16.9165V50.5784Z" fill="white"/>
</svg>
